<svg width="180" height="32" fill="none" xmlns="http://www.w3.org/2000/svg"><path d="M45.482 23V9.605h4.864c1.533 0 2.825.266 3.876.798 1.064.52 1.868 1.28 2.413 2.28.545.988.817 2.191.817 3.61 0 1.406-.272 2.61-.817 3.61-.545 1-1.349 1.767-2.413 2.299-1.051.532-2.343.798-3.876.798h-4.864Zm2.451-2.033h2.261c1.621 0 2.825-.386 3.61-1.159.785-.773 1.178-1.944 1.178-3.515 0-1.583-.393-2.755-1.178-3.515-.785-.773-1.989-1.159-3.61-1.159h-2.261v9.348ZM63.87 23.19c-.836 0-1.571-.196-2.204-.589-.634-.405-1.128-.982-1.482-1.729-.355-.747-.532-1.64-.532-2.679s.177-1.925.532-2.66c.354-.747.848-1.317 1.482-1.71.633-.405 1.368-.608 2.204-.608.81 0 1.52.203 2.128.608.62.393 1.032.925 1.235 1.596h-.21l.21-2.014h2.28l-.114 1.197c-.026.405-.038.804-.038 1.197V23h-2.356l-.02-1.976h.229c-.203.659-.615 1.184-1.235 1.577-.621.393-1.324.589-2.11.589Zm.665-1.824c.747 0 1.349-.26 1.805-.779.456-.532.684-1.33.684-2.394s-.228-1.856-.684-2.375c-.456-.52-1.058-.779-1.805-.779-.748 0-1.35.26-1.805.779-.456.52-.684 1.311-.684 2.375s.221 1.862.665 2.394c.456.52 1.064.779 1.824.779ZM75.767 23.19a8.646 8.646 0 0 1-2.28-.285c-.684-.203-1.26-.481-1.73-.836l.666-1.596c.481.33 1.013.583 1.596.76a6.038 6.038 0 0 0 1.767.266c.633 0 1.102-.108 1.406-.323.317-.215.475-.507.475-.874 0-.291-.101-.52-.304-.684-.19-.177-.5-.31-.931-.399l-1.9-.361c-.81-.177-1.431-.481-1.862-.912-.418-.43-.627-.994-.627-1.691 0-.595.158-1.121.475-1.577.33-.456.792-.81 1.387-1.064.608-.266 1.317-.399 2.128-.399.71 0 1.374.095 1.995.285.633.19 1.165.475 1.596.855l-.684 1.539a4.493 4.493 0 0 0-1.35-.741c-.506-.177-1-.266-1.481-.266-.659 0-1.14.12-1.444.361a1.066 1.066 0 0 0-.456.893c0 .279.089.513.266.703.19.177.481.31.874.399l1.9.361c.849.165 1.488.456 1.919.874.443.405.665.963.665 1.672 0 .633-.171 1.178-.513 1.634-.342.456-.817.804-1.425 1.045-.608.24-1.317.361-2.128.361ZM82.265 23V9.016h2.375v6.308h-.266c.292-.684.741-1.203 1.35-1.558.607-.367 1.304-.551 2.09-.551 1.14 0 1.988.323 2.545.969.558.633.836 1.602.836 2.907V23H88.82v-5.795c0-.747-.145-1.286-.437-1.615-.278-.342-.728-.513-1.349-.513-.722 0-1.304.228-1.748.684-.43.443-.646 1.039-.646 1.786V23h-2.375ZM99.605 23.19c-.811 0-1.52-.196-2.128-.589a2.905 2.905 0 0 1-1.216-1.634h.209V23h-2.356V9.016h2.375v6.346h-.228a2.83 2.83 0 0 1 1.235-1.558c.608-.393 1.31-.589 2.109-.589.848 0 1.589.203 2.223.608.633.405 1.127.982 1.482 1.729.354.735.532 1.621.532 2.66 0 1.039-.178 1.932-.532 2.679-.355.735-.855 1.305-1.501 1.71-.634.393-1.368.589-2.204.589Zm-.665-1.824c.747 0 1.349-.26 1.805-.779.468-.52.703-1.311.703-2.375s-.235-1.856-.703-2.375c-.456-.532-1.058-.798-1.805-.798-.748 0-1.35.26-1.805.779-.456.52-.684 1.311-.684 2.375s.228 1.862.684 2.394c.456.52 1.057.779 1.805.779ZM110.628 23.19c-.988 0-1.843-.203-2.565-.608a4.273 4.273 0 0 1-1.691-1.729c-.393-.747-.589-1.634-.589-2.66 0-1.026.196-1.906.589-2.641a4.273 4.273 0 0 1 1.691-1.729c.722-.405 1.577-.608 2.565-.608s1.843.203 2.565.608a4.122 4.122 0 0 1 1.691 1.729c.405.735.608 1.615.608 2.641s-.203 1.913-.608 2.66a4.122 4.122 0 0 1-1.691 1.729c-.722.405-1.577.608-2.565.608Zm0-1.824c.747 0 1.343-.26 1.786-.779.443-.532.665-1.33.665-2.394s-.222-1.856-.665-2.375c-.443-.52-1.039-.779-1.786-.779-.747 0-1.343.26-1.786.779-.443.52-.665 1.311-.665 2.375s.222 1.862.665 2.394c.443.52 1.039.779 1.786.779ZM121.645 23.19c-.836 0-1.571-.196-2.204-.589-.633-.405-1.127-.982-1.482-1.729-.355-.747-.532-1.64-.532-2.679s.177-1.925.532-2.66c.355-.747.849-1.317 1.482-1.71.633-.405 1.368-.608 2.204-.608.811 0 1.52.203 2.128.608.621.393 1.032.925 1.235 1.596h-.209l.209-2.014h2.28l-.114 1.197c-.025.405-.038.804-.038 1.197V23h-2.356l-.019-1.976h.228c-.203.659-.614 1.184-1.235 1.577-.621.393-1.324.589-2.109.589Zm.665-1.824c.747 0 1.349-.26 1.805-.779.456-.532.684-1.33.684-2.394s-.228-1.856-.684-2.375c-.456-.52-1.058-.779-1.805-.779-.747 0-1.349.26-1.805.779-.456.52-.684 1.311-.684 2.375s.222 1.862.665 2.394c.456.52 1.064.779 1.824.779ZM130.103 23v-7.144c0-.405-.012-.817-.038-1.235a12.144 12.144 0 0 0-.095-1.216h2.299l.266 2.622h-.38c.127-.633.336-1.159.627-1.577a2.867 2.867 0 0 1 1.102-.931c.431-.203.9-.304 1.406-.304.228 0 .412.013.551.038.14.013.279.044.418.095l-.019 2.09a2.6 2.6 0 0 0-.627-.19 4.243 4.243 0 0 0-.627-.038c-.544 0-1.007.114-1.387.342a2.182 2.182 0 0 0-.836.95 3.435 3.435 0 0 0-.266 1.387V23h-2.394ZM141.557 23.19c-.836 0-1.577-.196-2.223-.589-.634-.405-1.128-.982-1.482-1.729-.355-.747-.532-1.64-.532-2.679s.177-1.925.532-2.66c.354-.747.848-1.317 1.482-1.71.646-.405 1.387-.608 2.223-.608.798 0 1.501.196 2.109.589.62.38 1.032.9 1.235 1.558h-.247V9.016h2.375V23h-2.337v-2.033h.228c-.203.684-.615 1.229-1.235 1.634-.608.393-1.318.589-2.128.589Zm.665-1.824c.747 0 1.349-.26 1.805-.779.456-.532.684-1.33.684-2.394s-.228-1.856-.684-2.375c-.456-.52-1.058-.779-1.805-.779-.748 0-1.356.26-1.824.779-.456.52-.684 1.311-.684 2.375s.228 1.862.684 2.394c.468.52 1.076.779 1.824.779ZM155.819 23V9.605h2.451v5.928h.038l5.833-5.928h2.964l-6.992 6.973.019-1.064L167.561 23h-3.059l-6.194-6.194h-.038V23h-2.451ZM168.683 23v-9.595h2.375V23h-2.375Zm-.133-11.4V9.282h2.641V11.6h-2.641ZM178.141 23.19c-1.14 0-2.001-.298-2.584-.893-.582-.595-.874-1.488-.874-2.679v-4.427h-1.843v-1.786h1.843v-2.451l2.375-.608v3.059h2.565v1.786h-2.565v4.275c0 .659.127 1.121.38 1.387.254.266.602.399 1.045.399.241 0 .444-.019.608-.057.178-.038.349-.089.513-.152v1.881a3.004 3.004 0 0 1-.722.19c-.253.05-.5.076-.741.076Z" fill="#A4A6B3"/><path d="M32 16c0 8.837-7.163 16-16 16S0 24.837 0 16 7.163 0 16 0s16 7.163 16 16Z" fill="#3751FF"/><path d="M11 10a1 1 0 0 1 1-1h3.99c2.223 0 3.943.61 5.162 1.829C22.384 12.048 23 13.765 23 15.98c0 2.229-.616 3.96-1.848 5.191C19.933 22.391 18.212 23 15.99 23H12a1 1 0 0 1-1-1V10Z" fill="url(#a)"/><defs><linearGradient id="a" x1="11" y1="9" x2="23" y2="23" gradientUnits="userSpaceOnUse"><stop stop-color="#fff" stop-opacity=".7"/><stop offset="1" stop-color="#fff"/></linearGradient></defs></svg>