<svg width="16" height="16" fill="none" xmlns="http://www.w3.org/2000/svg"><path d="m1.129 4.268 2.187-2.143a.444.444 0 0 1 .618 0l2.187 2.143c.276.27.08.732-.31.732H4.501v8.571a.433.433 0 0 1-.438.429h-.875a.433.433 0 0 1-.437-.429V5H1.438c-.39 0-.584-.462-.31-.732Zm6.434-.554h7A.433.433 0 0 0 15 3.286v-.857A.433.433 0 0 0 14.562 2h-7a.433.433 0 0 0-.437.429v.857c0 .236.196.428.438.428Zm-.438 3v-.857c0-.237.196-.428.438-.428h5.25c.241 0 .437.191.437.428v.857a.433.433 0 0 1-.438.429h-5.25a.433.433 0 0 1-.437-.429Zm0 6.857v-.857c0-.236.196-.428.438-.428h1.75c.241 0 .437.192.437.428v.857a.433.433 0 0 1-.438.429h-1.75a.433.433 0 0 1-.437-.429Zm0-3.428v-.857c0-.237.196-.429.438-.429h3.5c.241 0 .437.192.437.429v.857a.433.433 0 0 1-.438.428h-3.5a.433.433 0 0 1-.437-.428Z" fill="#C5C7CD"/></svg>